<svg version="1.1" id="Calque_1" xmlns="http://www.w3.org/2000/svg" x="0" y="0" viewBox="0 0 36 36" xml:space="preserve"><style>.st3{fill:#ff9c6e}</style><g id="DESKTOP"><g id="Event-page-V2---Desktop" transform="translate(-399 -683)"><g id="TOP-INFORMATION" transform="translate(0 502)"><g id="EVENT-SPEC-SECTION" transform="translate(0 160)"><g id="EVENT-SPECS" transform="translate(144 21)"><g id="event_time" transform="translate(255)"><g id="Group"><path id="Rectangle-30" fill="#b1b5ba" fill-opacity="0" d="M0 0h36v36H0z"/><circle id="Oval-6" cx="18" cy="18" r="13" fill="none" stroke="#fd7854" stroke-width="2"/><circle id="Oval-6_1_" cx="18" cy="18" r="1" fill="#fd7854"/><path id="Rectangle" class="st3" d="M18 9c.6 0 1 .4 1 1v5c0 .6-.4 1-1 1s-1-.4-1-1v-5c0-.6.4-1 1-1z"/><path id="Rectangle_1_" class="st3" d="M19.1 19.6c.5-.3 1.1-.2 1.4.2l3.4 4.9c.3.5.2 1.1-.2 1.4-.5.3-1.1.2-1.4-.2L18.9 21c-.3-.4-.2-1 .2-1.4z"/></g></g></g></g></g></g></g></svg>