<svg version="1.1" id="Calque_1" xmlns="http://www.w3.org/2000/svg" x="0" y="0" viewBox="0 0 36 36" xml:space="preserve"><style>.st1{fill:none;stroke:#fd7854;stroke-width:2;stroke-linecap:round;stroke-linejoin:round}</style><g id="DESKTOP"><g id="Event-page-V2---Desktop" transform="translate(-144 -683)"><g id="TOP-INFORMATION" transform="translate(0 502)"><g id="EVENT-SPEC-SECTION" transform="translate(0 160)"><g id="EVENT-SPECS" transform="translate(144 21)"><g id="event_type"><g id="Group-31"><path id="Rectangle-28" fill="#b1b5ba" fill-opacity="0" d="M0 0h36v36H0z"/><g id="Group" transform="rotate(30 5.67 24.83)"><path id="Combined-Shape" class="st1" d="M6 23v-7c-3.3 0-6-2.7-6-6s2.7-6 6-6h.5c1-2.4 3.3-4 6-4s5 1.7 6 4h.5c3.3 0 6 2.7 6 6s-2.7 6-6 6v7c0 1.7-2.9 3-6.5 3S6 24.7 6 23z"/><path id="Oval-3" class="st1" d="M6 18c0 1.7 2.9 3 6.5 3"/><path id="Oval-4" d="M21.5 10.5C21.5 8.6 19.9 7 18 7" fill="none" stroke="#ff9c6e" stroke-width="2" stroke-linecap="round" stroke-linejoin="round"/><path id="Oval-5" class="st1" d="M15.8 15.1c.9.6 2 .9 3.2.9"/></g></g></g></g></g></g></g></g></svg>