<svg width="61" height="61" xmlns="http://www.w3.org/2000/svg"><g transform="translate(11 10)" fill="none" fill-rule="evenodd"><path d="M28.31 30.07c-8.16 7.13-16.08 15-23.48 6.56-7.4-8.44-6-24.79 2.17-31.92 8.17-7.13 20.78-6 28.18 2.44 7.4 8.44 1.29 15.79-6.87 22.92z" fill="#36A4E8" fill-rule="nonzero" opacity=".09"/><path d="M25.18 3.58l3.53-.35A2 2 0 0 1 30.91 5l.5 5-28.84 3-.5-5a2 2 0 0 1 1.8-2.2l3.59-.36m2.2-.3L22.98 3.8" stroke="#FD7854" stroke-linejoin="round"/><rect stroke="#FD7854" stroke-linejoin="round" transform="rotate(-5.72 8.56 5.25)" x="7.451" y="2.101" width="2.22" height="6.3" rx="1.11"/><rect stroke="#FD7854" stroke-linejoin="round" transform="rotate(-5.72 24.078 3.692)" x="22.968" y=".542" width="2.22" height="6.3" rx="1.11"/><path d="M2.565 12.956l28.855-2.89 1.728 17.243a2.49 2.49 0 0 1-2.22 2.725l-23.88 2.392a2.49 2.49 0 0 1-2.726-2.23L2.595 12.954l-.03.003z" stroke="#FD7854" stroke-linejoin="round"/><path d="M32.57 28.94a2.49 2.49 0 0 1-2.23 2.72L7.89 33.91a2.49 2.49 0 0 1-2.72-2.23" stroke="#FD7854" stroke-linejoin="round"/><path d="M31.56 31a2.27 2.27 0 0 1-2 2.48L9 35.49a2.27 2.27 0 0 1-2.48-2m-.39-22.53l.31 3.1m2.66-3.4l.31 3.1m2.65-3.39l.31 3.09m2.66-3.39l.31 3.1m2.65-3.4l.31 3.1m2.65-3.39l.31 3.09m2.66-3.39l.31 3.1m2.65-3.4l.31 3.1" stroke="#FD7854" stroke-linejoin="round"/><path d="M32.32 19.16L35 22.84a2.22 2.22 0 0 1-.73 3.3l-1 .53" stroke="#FD7854" stroke-linejoin="bevel"/><path d="M16 18.06l1.83-2.22h.4a.25.25 0 0 1 .2.07.28.28 0 0 1 .1.18l1 9.42a.28.28 0 0 1-.06.2.25.25 0 0 1-.18.11l-.53.06a.27.27 0 0 1-.21-.06.28.28 0 0 1-.1-.19l-.87-7.88-1 .94a.23.23 0 0 1-.34 0l-.24-.31a.21.21 0 0 1 0-.32z" fill="#FD7854" fill-rule="nonzero"/></g></svg>