<svg width="61" height="61" xmlns="http://www.w3.org/2000/svg"><g transform="translate(11 9)" fill="none" fill-rule="evenodd"><path d="M33.88 31.24c-6 5.31-12.73 10.87-24.51 7.26-9.9-3-11-23.58-3.45-30.14 7.55-6.56 13.37 1.08 23.6 2.69 8.17 1.29 11.84 13.59 4.36 20.19z" fill="#38E596" fill-rule="nonzero" opacity=".09"/><path d="M20 16.18l-.52 5.57a6.59 6.59 0 0 1-7.17 5.95 6.59 6.59 0 0 1-5.95-7.17l.5-5.53m5.46 12.28l-.87 9.37" stroke="#FD7854" stroke-linejoin="round"/><ellipse stroke="#FD7854" stroke-linejoin="round" transform="rotate(-84.66 11.443 36.646)" cx="11.443" cy="36.646" rx="2.53" ry="5.03"/><ellipse stroke="#FD7854" stroke-linejoin="round" transform="rotate(-84.66 13.396 15.716)" cx="13.396" cy="15.716" rx="2" ry="6.59"/><path d="M32.24 25.36l2.24 5.48" stroke="#FD7854" stroke-linejoin="round"/><ellipse stroke="#FD7854" stroke-linejoin="round" transform="rotate(-22.27 34.48 30.842)" cx="34.48" cy="30.842" rx="3.64" ry="2.11"/><ellipse stroke="#FD7854" stroke-linejoin="round" transform="rotate(-22.27 26.105 10.389)" cx="26.105" cy="10.389" rx="3.92" ry="2.1"/><path d="M29.73 8.91l3.92 14.61A2.31 2.31 0 0 1 29.93 25l-7.45-13.12M16.88.38L14.5 2.76M14.47.35l2.43 2.44m-3.56 5.93l-1.46 1.46m-.02-1.48l1.5 1.49m10.73-8.5l-2.19 2.2m-.03-2.22l2.25 2.25M8.42 18.78l-.22 1.68a4.09 4.09 0 0 0 1.51 3.86c.125.091.255.175.39.25" stroke="#FD7854" stroke-linejoin="round"/></g></svg>