<svg width="61" height="61" xmlns="http://www.w3.org/2000/svg"><g transform="translate(7 4)" fill="none" fill-rule="evenodd"><path d="M34.25 18c2.58 9.67 9.62 21.33 2.48 26.26-8.55 5.9-24.2.54-26.78-9.13-2.58-9.67-3.41-23.73 6.63-26.41C26.62 6.04 31.67 8.29 34.25 18z" fill="#EACC34" fill-rule="nonzero" opacity=".09"/><path d="M22.82 42.14v6.09m-6.01 0h12.01m-9.28-3.39h6.56M6.35 38.87l2.45-2.45A19.54 19.54 0 1 0 36.42 8.81l2.45-2.46" stroke="#FD7854" stroke-linejoin="round"/><circle stroke="#FD7854" stroke-linejoin="round" transform="rotate(-45 22.6 22.624)" cx="22.6" cy="22.624" r="15.72"/><path d="M11.47 33.75a18.22 18.22 0 0 1 22.26-22.26m-22.3 22.22a18.22 18.22 0 0 0 22.26-22.26m.03.06L11.48 33.74m0-22.23l22.24 22.23M18.22 7.52L37.7 27.01M7.36 18.38l19.4 19.41" stroke="#FD7854" stroke-linejoin="round"/><path d="M18.22 48.23v-1.27m2.3 1.27v-1.27m4.6 1.27v-1.27m2.3 1.27v-1.27" stroke="#FD7854" stroke-linejoin="round" stroke-dasharray="2"/><path d="M38.02 10.63l1.75-1.55" stroke="#FD7854" stroke-linejoin="round"/></g></svg>